<svg width="32" height="25" viewBox="0 0 32 25" fill="none" xmlns="http://www.w3.org/2000/svg">
<path d="M15.8502 1.02087H11.4129C11.1599 1.02087 10.9547 1.22602 10.9547 1.47907V23.3762C10.9547 23.6292 11.1599 23.8344 11.4129 23.8344H15.8502C16.1033 23.8344 16.3084 23.6292 16.3084 23.3762V1.47907C16.3084 1.22602 16.1033 1.02087 15.8502 1.02087Z" stroke="black"/>
<path d="M15.609 5.81995H11.6541C11.5209 5.81995 11.4129 5.92792 11.4129 6.0611V6.35049C11.4129 6.48368 11.5209 6.59165 11.6541 6.59165H15.609C15.7422 6.59165 15.8502 6.48368 15.8502 6.35049V6.0611C15.8502 5.92792 15.7422 5.81995 15.609 5.81995Z" fill="black"/>
<path d="M15.609 18.2637H11.6541C11.5209 18.2637 11.4129 18.3716 11.4129 18.5048V18.7942C11.4129 18.9274 11.5209 19.0354 11.6541 19.0354H15.609C15.7422 19.0354 15.8502 18.9274 15.8502 18.7942V18.5048C15.8502 18.3716 15.7422 18.2637 15.609 18.2637Z" fill="black"/>
<mask id="mask0_6_406" style="mask-type:luminance" maskUnits="userSpaceOnUse" x="1" y="2" width="10" height="22">
<path d="M10.5583 3.76458L6.24105 2.73926C5.98189 2.6777 5.72189 2.8379 5.66034 3.09707L1.11147 22.2505C1.04992 22.5097 1.21012 22.7697 1.46929 22.8312L5.7865 23.8566C6.04567 23.9181 6.30566 23.7579 6.36721 23.4988L10.9161 4.34529C10.9776 4.08612 10.8174 3.82613 10.5583 3.76458Z" fill="white"/>
</mask>
<g mask="url(#mask0_6_406)">
<path d="M9.20911 8.40148L5.36116 7.48761C5.23157 7.45683 5.10158 7.53693 5.0708 7.66652L5.00393 7.94807C4.97316 8.07766 5.05326 8.20765 5.18284 8.23843L9.03079 9.1523C9.16038 9.18308 9.29037 9.10298 9.32115 8.97339L9.38802 8.69184C9.41879 8.56225 9.33869 8.43226 9.20911 8.40148Z" fill="black"/>
<path d="M6.84467 18.3574L2.99672 17.4435C2.86713 17.4127 2.73714 17.4928 2.70636 17.6224L2.63949 17.9039C2.60872 18.0335 2.68882 18.1635 2.8184 18.1943L6.66635 19.1082C6.79593 19.1389 6.92593 19.0588 6.95671 18.9293L7.02358 18.6477C7.05435 18.5181 6.97425 18.3881 6.84467 18.3574Z" fill="black"/>
</g>
<path d="M10.5527 3.78806L6.23547 2.76274C5.98926 2.70426 5.74227 2.85645 5.6838 3.10266L1.13493 22.2561C1.07645 22.5023 1.22864 22.7493 1.47485 22.8078L5.79207 23.8331C6.03827 23.8916 6.28527 23.7394 6.34374 23.4932L10.8926 4.33973C10.9511 4.09352 10.7989 3.84653 10.5527 3.78806Z" stroke="black"/>
<mask id="mask1_6_406" style="mask-type:luminance" maskUnits="userSpaceOnUse" x="16" y="5" width="10" height="19">
<path d="M20.6454 5.25958L16.7036 6.19574C16.4445 6.25729 16.2843 6.51729 16.3458 6.77645L20.3134 23.4822C20.3749 23.7414 20.6349 23.9016 20.8941 23.84L24.8359 22.9038C25.0951 22.8423 25.2552 22.5823 25.1937 22.3231L21.2262 5.61739C21.1646 5.35823 20.9046 5.19803 20.6454 5.25958Z" fill="white"/>
</mask>
<g mask="url(#mask1_6_406)">
<path d="M21.5253 10.0079L18.0527 10.8326C17.9232 10.8634 17.8431 10.9934 17.8738 11.123L17.9407 11.4046C17.9715 11.5341 18.1015 11.6142 18.2311 11.5835L21.7036 10.7587C21.8332 10.728 21.9133 10.598 21.8825 10.4684L21.8156 10.1868C21.7849 10.0573 21.6549 9.97715 21.5253 10.0079Z" fill="black"/>
<path d="M23.3084 17.5161L19.8359 18.3408C19.7063 18.3716 19.6262 18.5016 19.657 18.6312L19.7239 18.9127C19.7546 19.0423 19.8846 19.1224 20.0142 19.0916L23.4867 18.2669C23.6163 18.2362 23.6964 18.1062 23.6657 17.9766L23.5988 17.695C23.568 17.5654 23.438 17.4853 23.3084 17.5161Z" fill="black"/>
</g>
<path d="M20.651 5.28304L16.7092 6.2192C16.463 6.27767 16.3108 6.52466 16.3693 6.77087L20.3368 23.4766C20.3953 23.7228 20.6423 23.875 20.8885 23.8165L24.8303 22.8804C25.0765 22.8219 25.2287 22.5749 25.1703 22.3287L21.2027 5.62296C21.1442 5.37675 20.8972 5.22456 20.651 5.28304Z" stroke="black"/>
<mask id="mask2_6_406" style="mask-type:luminance" maskUnits="userSpaceOnUse" x="23" y="12" width="8" height="12">
<path d="M26.0584 12.3169L23.4698 13.435C23.2252 13.5406 23.1126 13.8245 23.2182 14.069L27.2971 23.5129C27.4027 23.7574 27.6866 23.87 27.9312 23.7644L30.5197 22.6464C30.7643 22.5408 30.8769 22.2569 30.7713 22.0124L26.6924 12.5685C26.5868 12.3239 26.3029 12.2113 26.0584 12.3169Z" fill="white"/>
</mask>
<g mask="url(#mask2_6_406)">
<path d="M26.7932 14.6264L24.6474 15.5532C24.5251 15.606 24.4688 15.7479 24.5216 15.8702L24.6363 16.1359C24.6891 16.2581 24.8311 16.3144 24.9533 16.2616L27.0992 15.3348C27.2214 15.282 27.2777 15.1401 27.2249 15.0178L27.1102 14.7522C27.0574 14.6299 26.9154 14.5736 26.7932 14.6264Z" fill="black"/>
<path d="M29.0362 19.8196L26.8904 20.7464C26.7681 20.7992 26.7118 20.9412 26.7646 21.0634L26.8793 21.3291C26.9322 21.4514 27.0741 21.5077 27.1964 21.4549L29.3422 20.5281C29.4644 20.4753 29.5207 20.3333 29.4679 20.2111L29.3532 19.9454C29.3004 19.8231 29.1584 19.7668 29.0362 19.8196Z" fill="black"/>
</g>
<path d="M26.0679 12.339L23.4793 13.4571C23.247 13.5574 23.14 13.8271 23.2403 14.0594L27.3192 23.5033C27.4196 23.7356 27.6893 23.8426 27.9216 23.7422L30.5102 22.6242C30.7425 22.5238 30.8495 22.2542 30.7491 22.0219L26.6702 12.578C26.5699 12.3457 26.3002 12.2387 26.0679 12.339Z" stroke="black"/>
</svg>
